<?xml version="1.0" standalone="no"?><!DOCTYPE svg PUBLIC "-//W3C//DTD SVG 1.1//EN" "http://www.w3.org/Graphics/SVG/1.1/DTD/svg11.dtd"><svg class="icon" viewBox="0 0 1025 1024" version="1.1" xmlns="http://www.w3.org/2000/svg" width="16" height="16" ><path d="M700.31 724.51c54.425 0 100.189 37.083 113.403 87.36h100.401c16.506 0 29.886 13.38 29.886 29.885 0 16.506-13.38 29.886-29.886 29.886h-100.4C800.498 921.918 754.733 959 700.308 959c-54.425 0-100.19-37.082-113.404-87.359H81.885C65.38 871.641 52 858.261 52 841.755c0-16.505 13.38-29.885 29.886-29.885h505.02c13.214-50.277 58.978-87.36 113.403-87.36zM300.288 404.963c59.294 0 108.308 44.014 116.152 101.152h497.673C930.62 506.114 944 519.494 944 536s-13.38 29.886-29.886 29.886H409.13c-17.322 43.12-59.525 73.565-108.84 73.565-49.315 0-91.52-30.445-108.84-73.565H81.885C65.38 565.886 52 552.506 52 536s13.38-29.886 29.886-29.886h102.25c7.844-57.138 56.858-101.152 116.153-101.152zM498 113c54.425 0 100.19 37.082 113.404 87.359h302.71c16.506 0 29.886 13.38 29.886 29.886 0 16.505-13.38 29.885-29.886 29.885h-302.71C598.19 310.408 552.425 347.49 498 347.49s-100.19-37.083-113.404-87.36H81.886C65.38 260.13 52 246.75 52 230.245c0-16.506 13.38-29.886 29.886-29.886h302.71C397.81 150.082 443.575 113 498 113z" fill="#4CAF50"/></svg>