<?xml version="1.0" standalone="no"?><!DOCTYPE svg PUBLIC "-//W3C//DTD SVG 1.1//EN" "http://www.w3.org/Graphics/SVG/1.1/DTD/svg11.dtd"><svg class="icon" viewBox="0 0 1024 1024" version="1.1" xmlns="http://www.w3.org/2000/svg" width="13" height="13"><path d="M512 853.333333c-93.866667 0-179.2-38.4-241.066667-100.266666L426.666667 597.333333H42.666667v384l137.386666-137.386666C265.386667 928.853333 382.293333 981.333333 512 981.333333c229.973333 0 421.546667-165.973333 461.653333-384h-130.986666c-38.4 147.2-171.946667 256-330.666667 256zM981.333333 42.666667v384h-384l155.733334-155.733334A340.266667 340.266667 0 0 0 512 170.666667c-158.72 0-292.266667 108.8-330.666667 256H50.346667C90.453333 208.64 282.026667 42.666667 512 42.666667c129.706667 0 246.613333 52.48 331.946667 137.386666L981.333333 42.666667z" fill="#4CAF50"/></svg>