<?xml version="1.0" standalone="no"?><!DOCTYPE svg PUBLIC "-//W3C//DTD SVG 1.1//EN" "http://www.w3.org/Graphics/SVG/1.1/DTD/svg11.dtd"><svg class="icon" viewBox="0 0 1024 1024" version="1.1" xmlns="http://www.w3.org/2000/svg" width="16" height="16"><path d="M634.5 60.7h-419c-19.8 0-38.7 7.8-52.7 21.8C149.3 96 141 114.6 141 135.2v745.2c0 19.8 7.8 38.7 21.8 52.7s32.9 21.9 52.7 21.8h596.1c19.8 0 38.7-7.8 52.7-21.8 13.5-13.5 21.8-32.1 21.8-52.7l0.1-581.6L634.5 60.7z m-9.1 94.1l137 129.4h-137V154.8z m186.3 725.6H215.5V135.2h335.3v186.3c0 9.9 3.9 19.4 10.9 26.4s16.5 10.9 26.4 10.9h223.6v521.6z" fill="#4CAF50"/><path d="M311.5 460h68.3v68.3h-68.3zM311.5 323.4h68.3v68.3h-68.3zM652.9 460h68.3v68.3h-68.3zM311.5 596.5h68.3v68.3h-68.3zM652.9 596.5h68.3v68.3h-68.3zM311.5 733h68.3v68.3h-68.3zM652.9 733h68.3v68.3h-68.3zM580.2 662.1l-84-59.3c-3.2-2.3-7.6-2.7-11.3-1-3.7 1.7-6 5.1-6 8.8v118.5c0 3.7 2.3 7.2 6 8.8 3.7 1.7 8.1 1.2 11.3-1l84-59.3c2.6-1.9 4.2-4.7 4.2-7.8 0-2.9-1.5-5.8-4.2-7.7z" fill="#4CAF50"/></svg>