<?xml version="1.0" standalone="no"?><!DOCTYPE svg PUBLIC "-//W3C//DTD SVG 1.1//EN" "http://www.w3.org/Graphics/SVG/1.1/DTD/svg11.dtd"><svg class="icon" viewBox="0 0 1024 1024" version="1.1" xmlns="http://www.w3.org/2000/svg" width="16" height="16"><path d="M768.294 127.786h127.734v127.996H768.294zM512.245 127.786h127.734v127.996H512.245zM255.91 127.651h127.734v127.996H255.91zM640.412 256.066h127.734v127.996H640.412zM384.362 256.066h127.734v127.996H384.362zM128.028 255.931h127.734v127.996H128.028zM768.437 384.278h127.734v127.996H768.437zM512.387 384.278h127.734v127.996H512.387zM256.053 384.143h127.734v127.996H256.053zM640.554 512.115h127.734v127.996H640.554zM384.505 512.115h127.734v127.996H384.505zM128.17 511.981h127.734v127.996H128.17zM768.579 639.953h127.734v127.996H768.579zM512.529 639.953h127.734v127.996H512.529zM256.195 639.818h127.734v127.996H256.195zM640.697 767.79h127.734v127.996H640.697zM384.647 767.79h127.734v127.996H384.647zM128.313 767.655h127.734v127.996H128.313z" fill="#4CAF50"/></svg>